<svg xmlns="http://www.w3.org/2000/svg" viewBox="0 0 64 64">
  <defs>
    <radialGradient id="sunGlow" cx="50%" cy="50%" r="60%">
      <stop offset="0%" stop-color="#ffe066" />
      <stop offset="60%" stop-color="#ffbb33" />
      <stop offset="100%" stop-color="#ff8c42" />
    </radialGradient>
    <linearGradient id="horizon" x1="0%" y1="0%" x2="0%" y2="100%">
      <stop offset="0%" stop-color="#1fb6ff" />
      <stop offset="70%" stop-color="#1a9eeb" />
      <stop offset="100%" stop-color="#1375c0" />
    </linearGradient>
    <linearGradient id="palm" x1="0%" y1="0%" x2="100%" y2="100%">
      <stop offset="0%" stop-color="#2f9e44" />
      <stop offset="100%" stop-color="#1e7e34" />
    </linearGradient>
  </defs>
  <rect width="64" height="64" rx="12" fill="url(#horizon)" />
  <circle cx="38" cy="26" r="16" fill="url(#sunGlow)" />
  <path
    d="M12 44c6 3 18 3 24 0 6-3 18-3 24 0v8H12z"
    fill="#ffb347"
    opacity="0.45"
  />
  <path
    d="M22 50c4.5-5 7-11 7-18 0-1.2-0.05-2.4-0.2-3.6 3 3.4 4.5 8 4.5 12.6 0 3-0.6 5.8-1.8 8.4z"
    fill="#795548"
    opacity="0.65"
  />
  <path
    d="M24.5 20c3.5-2.5 7.5-3 11.5-1.5-4-0.5-7.5 0.3-10.5 2.5 3.3-0.7 6.4-0.4 9.2 1-3.7-0.3-6.8 0.5-9.3 2.4 3.6-0.6 6.4 0 8.6 1.8-3.8-0.7-6.8 0.1-9 2.3 2.8-0.3 5 0.4 6.7 1.9-3-0.2-5.4 0.8-7.2 3 1.5-0.5 3.4-0.6 5.6-0.2-2 1.1-3.5 2.7-4.4 4.9-0.8-1.1-1.9-2-3.5-2.7C20 31 18.5 26 20.8 22.2c0.5-0.9 1.7-1.7 3.7-2.2z"
    fill="url(#palm)"
  />
  <circle cx="48" cy="14" r="2.2" fill="#ffe066" opacity="0.85" />
  <circle cx="18" cy="14" r="1.8" fill="#ffe066" opacity="0.6" />
  <circle cx="54" cy="20" r="1.4" fill="#ffe066" opacity="0.55" />
</svg>
