<svg xmlns="http://www.w3.org/2000/svg" viewBox="0 0 64 64">
  <defs>
    <linearGradient id="sky" x1="0%" y1="0%" x2="0%" y2="100%">
      <stop offset="0%" stop-color="#0f172a" />
      <stop offset="60%" stop-color="#1e3a8a" />
      <stop offset="100%" stop-color="#0f172a" />
    </linearGradient>
    <linearGradient id="sun" x1="0%" y1="0%" x2="0%" y2="100%">
      <stop offset="0%" stop-color="#ffc371" />
      <stop offset="100%" stop-color="#ff5f6d" />
    </linearGradient>
    <linearGradient id="sea" x1="0%" y1="0%" x2="100%" y2="0%">
      <stop offset="0%" stop-color="#0ea5e9" />
      <stop offset="100%" stop-color="#0369a1" />
    </linearGradient>
  </defs>
  <circle cx="32" cy="32" r="28" fill="url(#sky)" />
  <path
    d="M10 36c6-3 12-4 22-4s16 1 22 4v12c-6 3-12 4-22 4s-16-1-22-4z"
    fill="url(#sea)"
  />
  <circle cx="32" cy="30" r="11" fill="url(#sun)" />
  <path
    d="M19 42c4 1.2 8.7 1.2 13.2 0 4.5-1.1 8.8-1.1 13.8 0"
    fill="none"
    stroke="#f9fafb"
    stroke-opacity="0.4"
    stroke-width="2.2"
    stroke-linecap="round"
  />
  <path
    d="M39 38l4.8 7.2c-2.4 0.6-4.6 0.5-6.5-0.4z"
    fill="#f9fafb"
    opacity="0.75"
  />
  <path d="M24 35c5-0.4 9.2-0.4 14 0" stroke="#f9fafb" stroke-width="1.6" stroke-linecap="round" opacity="0.35" />
</svg>
